<svg width="113" height="605" viewBox="0 0 113 605" fill="none" xmlns="http://www.w3.org/2000/svg">
<rect width="110" height="605" fill="white"/>
<path d="M51.1484 572.854C51.3437 573.049 51.6602 573.049 51.8555 572.854L55.0375 569.672C55.2327 569.476 55.2327 569.16 55.0375 568.964C54.8422 568.769 54.5256 568.769 54.3304 568.964L51.502 571.793L48.6735 568.964C48.4783 568.769 48.1617 568.769 47.9664 568.964C47.7712 569.16 47.7712 569.476 47.9664 569.672L51.1484 572.854ZM51.0014 28.8424L51.0014 29.8418L52.0014 29.8418L52.0014 28.8424L51.0014 28.8424ZM51.0014 31.8405L51.0014 33.8393L52.0014 33.8393L52.0014 31.8405L51.0014 31.8405ZM51.0014 35.838L51.0014 37.8367L52.0014 37.8367L52.0014 35.838L51.0014 35.838ZM51.0014 39.8355L51.0014 41.8342L52.0014 41.8342L52.0014 39.8355L51.0014 39.8355ZM51.0014 43.833L51.0014 45.8317L52.0014 45.8317L52.0014 43.833L51.0014 43.833ZM51.0014 47.8304L51.0014 49.8292L52.0014 49.8292L52.0014 47.8304L51.0014 47.8304ZM51.0014 51.8279L51.0015 53.8267L52.0015 53.8267L52.0014 51.8279L51.0014 51.8279ZM51.0015 55.8254L51.0015 57.8242L52.0015 57.8242L52.0015 55.8254L51.0015 55.8254ZM51.0015 59.8229L51.0015 61.8216L52.0015 61.8216L52.0015 59.8229L51.0015 59.8229ZM51.0015 63.8204L51.0015 65.8191L52.0015 65.8191L52.0015 63.8204L51.0015 63.8204ZM51.0015 67.8179L51.0015 69.8166L52.0015 69.8166L52.0015 67.8179L51.0015 67.8179ZM51.0015 71.8153L51.0015 73.8141L52.0015 73.8141L52.0015 71.8153L51.0015 71.8153ZM51.0015 75.8128L51.0015 77.8116L52.0015 77.8116L52.0015 75.8128L51.0015 75.8128ZM51.0015 79.8103L51.0015 81.809L52.0015 81.809L52.0015 79.8103L51.0015 79.8103ZM51.0015 83.8078L51.0015 85.8065L52.0015 85.8065L52.0015 83.8078L51.0015 83.8078ZM51.0015 87.8053L51.0015 89.804L52.0015 89.804L52.0015 87.8053L51.0015 87.8053ZM51.0015 91.8027L51.0015 93.8015L52.0015 93.8015L52.0015 91.8027L51.0015 91.8027ZM51.0015 95.8002L51.0015 97.799L52.0015 97.799L52.0015 95.8002L51.0015 95.8002ZM51.0015 99.7977L51.0015 101.796L52.0015 101.796L52.0015 99.7977L51.0015 99.7977ZM51.0015 103.795L51.0015 105.794L52.0015 105.794L52.0015 103.795L51.0015 103.795ZM51.0015 107.793L51.0015 109.791L52.0015 109.791L52.0015 107.793L51.0015 107.793ZM51.0015 111.79L51.0015 113.789L52.0015 113.789L52.0015 111.79L51.0015 111.79ZM51.0015 115.788L51.0015 117.786L52.0015 117.786L52.0015 115.788L51.0015 115.788ZM51.0015 119.785L51.0015 121.784L52.0015 121.784L52.0015 119.785L51.0015 119.785ZM51.0015 123.783L51.0015 125.781L52.0015 125.781L52.0015 123.783L51.0015 123.783ZM51.0015 127.78L51.0015 129.779L52.0015 129.779L52.0015 127.78L51.0015 127.78ZM51.0015 131.778L51.0015 133.776L52.0015 133.776L52.0015 131.778L51.0015 131.778ZM51.0015 135.775L51.0015 137.774L52.0015 137.774L52.0015 135.775L51.0015 135.775ZM51.0015 139.773L51.0015 141.771L52.0015 141.771L52.0015 139.773L51.0015 139.773ZM51.0015 143.77L51.0015 145.769L52.0015 145.769L52.0015 143.77L51.0015 143.77ZM51.0015 147.768L51.0015 149.766L52.0015 149.766L52.0015 147.768L51.0015 147.768ZM51.0015 151.765L51.0015 153.764L52.0015 153.764L52.0015 151.765L51.0015 151.765ZM51.0015 155.762L51.0016 157.761L52.0016 157.761L52.0015 155.762L51.0015 155.762ZM51.0016 159.76L51.0016 161.759L52.0016 161.759L52.0016 159.76L51.0016 159.76ZM51.0016 163.757L51.0016 165.756L52.0016 165.756L52.0016 163.757L51.0016 163.757ZM51.0016 167.755L51.0016 169.754L52.0016 169.754L52.0016 167.755L51.0016 167.755ZM51.0016 171.752L51.0016 173.751L52.0016 173.751L52.0016 171.752L51.0016 171.752ZM51.0016 175.75L51.0016 177.749L52.0016 177.749L52.0016 175.75L51.0016 175.75ZM51.0016 179.747L51.0016 181.746L52.0016 181.746L52.0016 179.747L51.0016 179.747ZM51.0016 183.745L51.0016 185.743L52.0016 185.743L52.0016 183.745L51.0016 183.745ZM51.0016 187.742L51.0016 189.741L52.0016 189.741L52.0016 187.742L51.0016 187.742ZM51.0016 191.74L51.0016 193.738L52.0016 193.738L52.0016 191.74L51.0016 191.74ZM51.0016 195.737L51.0016 197.736L52.0016 197.736L52.0016 195.737L51.0016 195.737ZM51.0016 199.735L51.0016 201.733L52.0016 201.733L52.0016 199.735L51.0016 199.735ZM51.0016 203.732L51.0016 205.731L52.0016 205.731L52.0016 203.732L51.0016 203.732ZM51.0016 207.73L51.0016 209.728L52.0016 209.728L52.0016 207.73L51.0016 207.73ZM51.0016 211.727L51.0016 213.726L52.0016 213.726L52.0016 211.727L51.0016 211.727ZM51.0016 215.724L51.0016 217.723L52.0016 217.723L52.0016 215.724L51.0016 215.724ZM51.0016 219.722L51.0016 221.721L52.0016 221.721L52.0016 219.722L51.0016 219.722ZM51.0016 223.719L51.0016 225.718L52.0016 225.718L52.0016 223.719L51.0016 223.719ZM51.0016 227.717L51.0016 229.716L52.0016 229.716L52.0016 227.717L51.0016 227.717ZM51.0016 231.714L51.0016 233.713L52.0016 233.713L52.0016 231.714L51.0016 231.714ZM51.0016 235.712L51.0016 237.711L52.0016 237.711L52.0016 235.712L51.0016 235.712ZM51.0016 239.709L51.0016 241.708L52.0016 241.708L52.0016 239.709L51.0016 239.709ZM51.0016 243.707L51.0016 245.705L52.0016 245.705L52.0016 243.707L51.0016 243.707ZM51.0016 247.704L51.0016 249.703L52.0016 249.703L52.0016 247.704L51.0016 247.704ZM51.0016 251.702L51.0016 253.7L52.0016 253.7L52.0016 251.702L51.0016 251.702ZM51.0016 255.699L51.0016 257.698L52.0016 257.698L52.0016 255.699L51.0016 255.699ZM51.0017 259.697L51.0017 261.695L52.0017 261.695L52.0017 259.697L51.0017 259.697ZM51.0017 263.694L51.0017 265.693L52.0017 265.693L52.0017 263.694L51.0017 263.694ZM51.0017 267.692L51.0017 269.69L52.0017 269.69L52.0017 267.692L51.0017 267.692ZM51.0017 271.689L51.0017 273.688L52.0017 273.688L52.0017 271.689L51.0017 271.689ZM51.0017 275.686L51.0017 277.685L52.0017 277.685L52.0017 275.686L51.0017 275.686ZM51.0017 279.684L51.0017 281.683L52.0017 281.683L52.0017 279.684L51.0017 279.684ZM51.0017 283.681L51.0017 285.68L52.0017 285.68L52.0017 283.681L51.0017 283.681ZM51.0017 287.679L51.0017 289.678L52.0017 289.678L52.0017 287.679L51.0017 287.679ZM51.0017 291.676L51.0017 293.675L52.0017 293.675L52.0017 291.676L51.0017 291.676ZM51.0017 295.674L51.0017 297.673L52.0017 297.673L52.0017 295.674L51.0017 295.674ZM51.0017 299.671L51.0017 301.67L52.0017 301.67L52.0017 299.671L51.0017 299.671ZM51.0017 303.669L51.0017 305.668L52.0017 305.668L52.0017 303.669L51.0017 303.669ZM51.0017 307.666L51.0017 309.665L52.0017 309.665L52.0017 307.666L51.0017 307.666ZM51.0017 311.664L51.0017 313.663L52.0017 313.663L52.0017 311.664L51.0017 311.664ZM51.0017 315.661L51.0017 317.66L52.0017 317.66L52.0017 315.661L51.0017 315.661ZM51.0017 319.659L51.0017 321.658L52.0017 321.658L52.0017 319.659L51.0017 319.659ZM51.0017 323.656L51.0017 325.655L52.0017 325.655L52.0017 323.656L51.0017 323.656ZM51.0017 327.654L51.0017 329.653L52.0017 329.653L52.0017 327.654L51.0017 327.654ZM51.0017 331.651L51.0017 333.65L52.0017 333.65L52.0017 331.651L51.0017 331.651ZM51.0017 335.649L51.0017 337.648L52.0017 337.648L52.0017 335.649L51.0017 335.649ZM51.0017 339.646L51.0017 341.645L52.0017 341.645L52.0017 339.646L51.0017 339.646ZM51.0017 343.644L51.0017 345.643L52.0017 345.643L52.0017 343.644L51.0017 343.644ZM51.0017 347.641L51.0017 349.64L52.0017 349.64L52.0017 347.641L51.0017 347.641ZM51.0017 351.639L51.0017 353.638L52.0017 353.638L52.0017 351.639L51.0017 351.639ZM51.0017 355.636L51.0017 357.635L52.0017 357.635L52.0017 355.636L51.0017 355.636ZM51.0017 359.634L51.0017 361.633L52.0017 361.633L52.0017 359.634L51.0017 359.634ZM51.0018 363.631L51.0018 365.63L52.0018 365.63L52.0018 363.631L51.0018 363.631ZM51.0018 367.629L51.0018 369.628L52.0018 369.628L52.0018 367.629L51.0018 367.629ZM51.0018 371.626L51.0018 373.625L52.0018 373.625L52.0018 371.626L51.0018 371.626ZM51.0018 375.624L51.0018 377.623L52.0018 377.623L52.0018 375.624L51.0018 375.624ZM51.0018 379.621L51.0018 381.62L52.0018 381.62L52.0018 379.621L51.0018 379.621ZM51.0018 383.619L51.0018 385.618L52.0018 385.618L52.0018 383.619L51.0018 383.619ZM51.0018 387.616L51.0018 389.615L52.0018 389.615L52.0018 387.616L51.0018 387.616ZM51.0018 391.614L51.0018 393.613L52.0018 393.613L52.0018 391.614L51.0018 391.614ZM51.0018 395.611L51.0018 397.61L52.0018 397.61L52.0018 395.611L51.0018 395.611ZM51.0018 399.609L51.0018 401.608L52.0018 401.608L52.0018 399.609L51.0018 399.609ZM51.0018 403.606L51.0018 405.605L52.0018 405.605L52.0018 403.606L51.0018 403.606ZM51.0018 407.604L51.0018 409.603L52.0018 409.603L52.0018 407.604L51.0018 407.604ZM51.0018 411.601L51.0018 413.6L52.0018 413.6L52.0018 411.601L51.0018 411.601ZM51.0018 415.599L51.0018 417.598L52.0018 417.598L52.0018 415.599L51.0018 415.599ZM51.0018 419.596L51.0018 421.595L52.0018 421.595L52.0018 419.596L51.0018 419.596ZM51.0018 423.594L51.0018 425.593L52.0018 425.593L52.0018 423.594L51.0018 423.594ZM51.0018 427.591L51.0018 429.59L52.0018 429.59L52.0018 427.591L51.0018 427.591ZM51.0018 431.589L51.0018 433.588L52.0018 433.588L52.0018 431.589L51.0018 431.589ZM51.0018 435.586L51.0018 437.585L52.0018 437.585L52.0018 435.586L51.0018 435.586ZM51.0018 439.584L51.0018 441.583L52.0018 441.583L52.0018 439.584L51.0018 439.584ZM51.0018 443.581L51.0018 445.58L52.0018 445.58L52.0018 443.581L51.0018 443.581ZM51.0018 447.579L51.0018 449.578L52.0018 449.578L52.0018 447.579L51.0018 447.579ZM51.0018 451.576L51.0018 453.575L52.0018 453.575L52.0018 451.576L51.0018 451.576ZM51.0018 455.574L51.0018 457.573L52.0018 457.573L52.0018 455.574L51.0018 455.574ZM51.0018 459.571L51.0018 461.57L52.0018 461.57L52.0018 459.571L51.0018 459.571ZM51.0018 463.569L51.0018 465.568L52.0018 465.568L52.0018 463.569L51.0018 463.569ZM51.0019 467.566L51.0019 469.565L52.0019 469.565L52.0019 467.566L51.0019 467.566ZM51.0019 471.564L51.0019 473.563L52.0019 473.563L52.0019 471.564L51.0019 471.564ZM51.0019 475.561L51.0019 477.56L52.0019 477.56L52.0019 475.561L51.0019 475.561ZM51.0019 479.559L51.0019 481.558L52.0019 481.558L52.0019 479.559L51.0019 479.559ZM51.0019 483.556L51.0019 485.555L52.0019 485.555L52.0019 483.556L51.0019 483.556ZM51.0019 487.554L51.0019 489.553L52.0019 489.553L52.0019 487.554L51.0019 487.554ZM51.0019 491.551L51.0019 493.55L52.0019 493.55L52.0019 491.551L51.0019 491.551ZM51.0019 495.549L51.0019 497.548L52.0019 497.548L52.0019 495.549L51.0019 495.549ZM51.0019 499.546L51.0019 501.545L52.0019 501.545L52.0019 499.546L51.0019 499.546ZM51.0019 503.544L51.0019 505.543L52.0019 505.543L52.0019 503.544L51.0019 503.544ZM51.0019 507.541L51.0019 509.54L52.0019 509.54L52.0019 507.541L51.0019 507.541ZM51.0019 511.539L51.0019 513.538L52.0019 513.538L52.0019 511.539L51.0019 511.539ZM51.0019 515.536L51.0019 517.535L52.0019 517.535L52.0019 515.536L51.0019 515.536ZM51.0019 519.534L51.0019 521.533L52.0019 521.533L52.0019 519.534L51.0019 519.534ZM51.0019 523.531L51.0019 525.53L52.0019 525.53L52.0019 523.531L51.0019 523.531ZM51.0019 527.529L51.0019 529.527L52.0019 529.527L52.0019 527.529L51.0019 527.529ZM51.0019 531.526L51.0019 533.525L52.0019 533.525L52.0019 531.526L51.0019 531.526ZM51.0019 535.524L51.0019 537.523L52.0019 537.522L52.0019 535.524L51.0019 535.524ZM51.0019 539.521L51.0019 541.52L52.0019 541.52L52.0019 539.521L51.0019 539.521ZM51.0019 543.519L51.0019 545.517L52.0019 545.517L52.0019 543.519L51.0019 543.519ZM51.0019 547.516L51.0019 549.515L52.0019 549.515L52.0019 547.516L51.0019 547.516ZM51.0019 551.514L51.0019 553.512L52.0019 553.512L52.0019 551.514L51.0019 551.514ZM51.0019 555.511L51.0019 557.51L52.0019 557.51L52.0019 555.511L51.0019 555.511ZM51.0019 559.508L51.0019 561.507L52.0019 561.507L52.0019 559.508L51.0019 559.508ZM51.0019 563.506L51.0019 565.505L52.0019 565.505L52.0019 563.506L51.0019 563.506ZM51.0019 567.503L51.002 569.502L52.002 569.502L52.0019 567.503L51.0019 567.503ZM51.002 571.501L51.002 572.5L52.002 572.5L52.002 571.501L51.002 571.501Z" fill="#B7B6B6"/>
<circle cx="51.5" cy="28.5" r="2.5" transform="rotate(90 51.5 28.5)" fill="#C5C5C5"/>
<path d="M24.902 12.39C24.902 12.586 24.9253 12.726 24.972 12.81C25.028 12.894 25.1307 12.936 25.28 12.936C25.3267 12.936 25.3827 12.936 25.448 12.936C25.5133 12.936 25.588 12.9267 25.672 12.908V14.014C25.616 14.0327 25.5413 14.0513 25.448 14.07C25.364 14.098 25.2753 14.1213 25.182 14.14C25.0887 14.1587 24.9953 14.1727 24.902 14.182C24.8087 14.1913 24.7293 14.196 24.664 14.196C24.3373 14.196 24.0667 14.1307 23.852 14C23.6373 13.8693 23.4973 13.6407 23.432 13.314C23.1147 13.622 22.7227 13.846 22.256 13.986C21.7987 14.126 21.3553 14.196 20.926 14.196C20.5993 14.196 20.2867 14.1493 19.988 14.056C19.6893 13.972 19.4233 13.846 19.19 13.678C18.966 13.5007 18.784 13.2813 18.644 13.02C18.5133 12.7493 18.448 12.4367 18.448 12.082C18.448 11.634 18.5273 11.27 18.686 10.99C18.854 10.71 19.0687 10.4907 19.33 10.332C19.6007 10.1733 19.8993 10.0613 20.226 9.996C20.562 9.92133 20.898 9.86533 21.234 9.828C21.5233 9.772 21.7987 9.73467 22.06 9.716C22.3213 9.688 22.55 9.646 22.746 9.59C22.9513 9.534 23.11 9.45 23.222 9.338C23.3433 9.21667 23.404 9.03933 23.404 8.806C23.404 8.60067 23.3527 8.43267 23.25 8.302C23.1567 8.17133 23.0353 8.07333 22.886 8.008C22.746 7.93333 22.5873 7.88667 22.41 7.868C22.2327 7.84 22.0647 7.826 21.906 7.826C21.458 7.826 21.0893 7.91933 20.8 8.106C20.5107 8.29267 20.3473 8.582 20.31 8.974H18.714C18.742 8.50733 18.854 8.12 19.05 7.812C19.246 7.504 19.4933 7.25667 19.792 7.07C20.1 6.88333 20.4453 6.75267 20.828 6.678C21.2107 6.60333 21.6027 6.566 22.004 6.566C22.3587 6.566 22.7087 6.60333 23.054 6.678C23.3993 6.75267 23.7073 6.874 23.978 7.042C24.258 7.21 24.482 7.42933 24.65 7.7C24.818 7.96133 24.902 8.28333 24.902 8.666V12.39ZM23.306 10.374C23.0633 10.5327 22.7647 10.6307 22.41 10.668C22.0553 10.696 21.7007 10.7427 21.346 10.808C21.178 10.836 21.0147 10.878 20.856 10.934C20.6973 10.9807 20.5573 11.0507 20.436 11.144C20.3147 11.228 20.2167 11.3447 20.142 11.494C20.0767 11.634 20.044 11.8067 20.044 12.012C20.044 12.1893 20.0953 12.3387 20.198 12.46C20.3007 12.5813 20.422 12.6793 20.562 12.754C20.7113 12.8193 20.87 12.866 21.038 12.894C21.2153 12.922 21.374 12.936 21.514 12.936C21.6913 12.936 21.8827 12.9127 22.088 12.866C22.2933 12.8193 22.4847 12.74 22.662 12.628C22.8487 12.516 23.0027 12.376 23.124 12.208C23.2453 12.0307 23.306 11.816 23.306 11.564V10.374ZM26.6193 6.762H28.1173V8.162H28.1453C28.192 7.966 28.2806 7.77467 28.4113 7.588C28.5513 7.40133 28.7146 7.23333 28.9013 7.084C29.0973 6.92533 29.312 6.79933 29.5453 6.706C29.7786 6.61267 30.0166 6.566 30.2593 6.566C30.446 6.566 30.572 6.57067 30.6373 6.58C30.712 6.58933 30.7866 6.59867 30.8613 6.608V8.148C30.7493 8.12933 30.6326 8.11533 30.5113 8.106C30.3993 8.08733 30.2873 8.078 30.1753 8.078C29.9046 8.078 29.648 8.134 29.4053 8.246C29.172 8.34867 28.9666 8.50733 28.7893 8.722C28.612 8.92733 28.472 9.184 28.3693 9.492C28.2666 9.8 28.2153 10.1547 28.2153 10.556V14H26.6193V6.762ZM36.1811 9.184C36.1157 8.736 35.9337 8.4 35.6351 8.176C35.3457 7.94267 34.9771 7.826 34.5291 7.826C34.3237 7.826 34.1044 7.86333 33.8711 7.938C33.6377 8.00333 33.4231 8.134 33.2271 8.33C33.0311 8.51667 32.8677 8.78267 32.7371 9.128C32.6064 9.464 32.5411 9.90733 32.5411 10.458C32.5411 10.7567 32.5737 11.0553 32.6391 11.354C32.7137 11.6527 32.8257 11.9187 32.9751 12.152C33.1337 12.3853 33.3344 12.5767 33.5771 12.726C33.8197 12.866 34.1137 12.936 34.4591 12.936C34.9257 12.936 35.3084 12.7913 35.6071 12.502C35.9151 12.2127 36.1064 11.8067 36.1811 11.284H37.7771C37.6277 12.2267 37.2684 12.95 36.6991 13.454C36.1391 13.9487 35.3924 14.196 34.4591 14.196C33.8897 14.196 33.3857 14.1027 32.9471 13.916C32.5177 13.72 32.1537 13.4587 31.8551 13.132C31.5564 12.796 31.3277 12.3993 31.1691 11.942C31.0197 11.4847 30.9451 10.99 30.9451 10.458C30.9451 9.91667 31.0197 9.408 31.1691 8.932C31.3184 8.456 31.5424 8.04533 31.8411 7.7C32.1397 7.34533 32.5084 7.07 32.9471 6.874C33.3951 6.66867 33.9177 6.566 34.5151 6.566C34.9351 6.566 35.3317 6.622 35.7051 6.734C36.0877 6.83667 36.4237 6.99533 36.7131 7.21C37.0117 7.42467 37.2544 7.69533 37.4411 8.022C37.6277 8.34867 37.7397 8.736 37.7771 9.184H36.1811ZM39.0744 4.004H40.6704V7.714H40.6984C40.8944 7.38733 41.1837 7.11667 41.5664 6.902C41.9584 6.678 42.3924 6.566 42.8684 6.566C43.6617 6.566 44.287 6.77133 44.7444 7.182C45.2017 7.59267 45.4304 8.20867 45.4304 9.03V14H43.8344V9.45C43.8157 8.88067 43.6944 8.47 43.4704 8.218C43.2464 7.95667 42.8964 7.826 42.4204 7.826C42.1497 7.826 41.907 7.87733 41.6924 7.98C41.4777 8.07333 41.2957 8.20867 41.1464 8.386C40.997 8.554 40.8804 8.75467 40.7964 8.988C40.7124 9.22133 40.6704 9.46867 40.6704 9.73V14H39.0744V4.004ZM47.1554 4.004H48.7514V5.516H47.1554V4.004ZM47.1554 6.762H48.7514V14H47.1554V6.762ZM49.7624 6.762H50.9664V4.592H52.5624V6.762H54.0044V7.952H52.5624V11.816C52.5624 11.984 52.5671 12.1287 52.5764 12.25C52.5951 12.3713 52.6277 12.474 52.6744 12.558C52.7304 12.642 52.8097 12.7073 52.9124 12.754C53.0151 12.7913 53.1551 12.81 53.3324 12.81C53.4444 12.81 53.5564 12.81 53.6684 12.81C53.7804 12.8007 53.8924 12.782 54.0044 12.754V13.986C53.8271 14.0047 53.6544 14.0233 53.4864 14.042C53.3184 14.0607 53.1457 14.07 52.9684 14.07C52.5484 14.07 52.2077 14.0327 51.9464 13.958C51.6944 13.874 51.4937 13.7573 51.3444 13.608C51.2044 13.4493 51.1064 13.2533 51.0504 13.02C51.0037 12.7867 50.9757 12.5207 50.9664 12.222V7.952H49.7624V6.762ZM60.1225 9.744C60.1038 9.492 60.0478 9.24933 59.9545 9.016C59.8705 8.78267 59.7492 8.582 59.5905 8.414C59.4412 8.23667 59.2545 8.09667 59.0305 7.994C58.8158 7.882 58.5732 7.826 58.3025 7.826C58.0225 7.826 57.7658 7.87733 57.5325 7.98C57.3085 8.07333 57.1125 8.20867 56.9445 8.386C56.7858 8.554 56.6552 8.75467 56.5525 8.988C56.4592 9.22133 56.4078 9.47333 56.3985 9.744H60.1225ZM56.3985 10.794C56.3985 11.074 56.4358 11.3447 56.5105 11.606C56.5945 11.8673 56.7158 12.096 56.8745 12.292C57.0332 12.488 57.2338 12.6467 57.4765 12.768C57.7192 12.88 58.0085 12.936 58.3445 12.936C58.8112 12.936 59.1845 12.838 59.4645 12.642C59.7538 12.4367 59.9685 12.1333 60.1085 11.732H61.6205C61.5365 12.124 61.3918 12.474 61.1865 12.782C60.9812 13.09 60.7338 13.3513 60.4445 13.566C60.1552 13.7713 59.8285 13.9253 59.4645 14.028C59.1098 14.14 58.7365 14.196 58.3445 14.196C57.7752 14.196 57.2712 14.1027 56.8325 13.916C56.3938 13.7293 56.0205 13.468 55.7125 13.132C55.4138 12.796 55.1852 12.3947 55.0265 11.928C54.8772 11.4613 54.8025 10.948 54.8025 10.388C54.8025 9.87467 54.8818 9.38933 55.0405 8.932C55.2085 8.46533 55.4418 8.05933 55.7405 7.714C56.0485 7.35933 56.4172 7.07933 56.8465 6.874C57.2758 6.66867 57.7612 6.566 58.3025 6.566C58.8718 6.566 59.3805 6.68733 59.8285 6.93C60.2858 7.16333 60.6638 7.476 60.9625 7.868C61.2612 8.26 61.4758 8.71267 61.6065 9.226C61.7465 9.73 61.7838 10.2527 61.7185 10.794H56.3985ZM67.8178 9.184C67.7525 8.736 67.5705 8.4 67.2718 8.176C66.9825 7.94267 66.6138 7.826 66.1658 7.826C65.9605 7.826 65.7411 7.86333 65.5078 7.938C65.2745 8.00333 65.0598 8.134 64.8638 8.33C64.6678 8.51667 64.5045 8.78267 64.3738 9.128C64.2431 9.464 64.1778 9.90733 64.1778 10.458C64.1778 10.7567 64.2105 11.0553 64.2758 11.354C64.3505 11.6527 64.4625 11.9187 64.6118 12.152C64.7705 12.3853 64.9711 12.5767 65.2138 12.726C65.4565 12.866 65.7505 12.936 66.0958 12.936C66.5625 12.936 66.9451 12.7913 67.2438 12.502C67.5518 12.2127 67.7431 11.8067 67.8178 11.284H69.4138C69.2645 12.2267 68.9051 12.95 68.3358 13.454C67.7758 13.9487 67.0291 14.196 66.0958 14.196C65.5265 14.196 65.0225 14.1027 64.5838 13.916C64.1545 13.72 63.7905 13.4587 63.4918 13.132C63.1931 12.796 62.9645 12.3993 62.8058 11.942C62.6565 11.4847 62.5818 10.99 62.5818 10.458C62.5818 9.91667 62.6565 9.408 62.8058 8.932C62.9551 8.456 63.1791 8.04533 63.4778 7.7C63.7765 7.34533 64.1451 7.07 64.5838 6.874C65.0318 6.66867 65.5545 6.566 66.1518 6.566C66.5718 6.566 66.9685 6.622 67.3418 6.734C67.7245 6.83667 68.0605 6.99533 68.3498 7.21C68.6485 7.42467 68.8911 7.69533 69.0778 8.022C69.2645 8.34867 69.3765 8.736 69.4138 9.184H67.8178ZM69.9831 6.762H71.1871V4.592H72.7831V6.762H74.2251V7.952H72.7831V11.816C72.7831 11.984 72.7878 12.1287 72.7971 12.25C72.8158 12.3713 72.8484 12.474 72.8951 12.558C72.9511 12.642 73.0304 12.7073 73.1331 12.754C73.2358 12.7913 73.3758 12.81 73.5531 12.81C73.6651 12.81 73.7771 12.81 73.8891 12.81C74.0011 12.8007 74.1131 12.782 74.2251 12.754V13.986C74.0478 14.0047 73.8751 14.0233 73.7071 14.042C73.5391 14.0607 73.3664 14.07 73.1891 14.07C72.7691 14.07 72.4284 14.0327 72.1671 13.958C71.9151 13.874 71.7144 13.7573 71.5651 13.608C71.4251 13.4493 71.3271 13.2533 71.2711 13.02C71.2244 12.7867 71.1964 12.5207 71.1871 12.222V7.952H69.9831V6.762ZM81.7292 14H80.1612V12.992H80.1332C79.9372 13.356 79.6432 13.65 79.2512 13.874C78.8685 14.0887 78.4765 14.196 78.0752 14.196C77.1232 14.196 76.4325 13.9627 76.0032 13.496C75.5832 13.02 75.3732 12.306 75.3732 11.354V6.762H76.9692V11.2C76.9692 11.8347 77.0905 12.2827 77.3332 12.544C77.5759 12.8053 77.9165 12.936 78.3552 12.936C78.6912 12.936 78.9712 12.8847 79.1952 12.782C79.4192 12.6793 79.6012 12.544 79.7412 12.376C79.8812 12.1987 79.9792 11.9887 80.0352 11.746C80.1005 11.5033 80.1332 11.242 80.1332 10.962V6.762H81.7292V14ZM83.4123 6.762H84.9103V8.162H84.9383C84.9849 7.966 85.0736 7.77467 85.2043 7.588C85.3443 7.40133 85.5076 7.23333 85.6943 7.084C85.8903 6.92533 86.1049 6.79933 86.3383 6.706C86.5716 6.61267 86.8096 6.566 87.0523 6.566C87.2389 6.566 87.3649 6.57067 87.4303 6.58C87.5049 6.58933 87.5796 6.59867 87.6543 6.608V8.148C87.5423 8.12933 87.4256 8.11533 87.3043 8.106C87.1923 8.08733 87.0803 8.078 86.9683 8.078C86.6976 8.078 86.4409 8.134 86.1983 8.246C85.9649 8.34867 85.7596 8.50733 85.5823 8.722C85.4049 8.92733 85.2649 9.184 85.1623 9.492C85.0596 9.8 85.0083 10.1547 85.0083 10.556V14H83.4123V6.762ZM93.058 9.744C93.0394 9.492 92.9834 9.24933 92.89 9.016C92.806 8.78267 92.6847 8.582 92.526 8.414C92.3767 8.23667 92.19 8.09667 91.966 7.994C91.7514 7.882 91.5087 7.826 91.238 7.826C90.958 7.826 90.7014 7.87733 90.468 7.98C90.244 8.07333 90.048 8.20867 89.88 8.386C89.7214 8.554 89.5907 8.75467 89.488 8.988C89.3947 9.22133 89.3434 9.47333 89.334 9.744H93.058ZM89.334 10.794C89.334 11.074 89.3714 11.3447 89.446 11.606C89.53 11.8673 89.6514 12.096 89.81 12.292C89.9687 12.488 90.1694 12.6467 90.412 12.768C90.6547 12.88 90.944 12.936 91.28 12.936C91.7467 12.936 92.12 12.838 92.4 12.642C92.6894 12.4367 92.904 12.1333 93.044 11.732H94.556C94.472 12.124 94.3274 12.474 94.122 12.782C93.9167 13.09 93.6694 13.3513 93.38 13.566C93.0907 13.7713 92.764 13.9253 92.4 14.028C92.0454 14.14 91.672 14.196 91.28 14.196C90.7107 14.196 90.2067 14.1027 89.768 13.916C89.3294 13.7293 88.956 13.468 88.648 13.132C88.3494 12.796 88.1207 12.3947 87.962 11.928C87.8127 11.4613 87.738 10.948 87.738 10.388C87.738 9.87467 87.8174 9.38933 87.976 8.932C88.144 8.46533 88.3774 8.05933 88.676 7.714C88.984 7.35933 89.3527 7.07933 89.782 6.874C90.2114 6.66867 90.6967 6.566 91.238 6.566C91.8074 6.566 92.316 6.68733 92.764 6.93C93.2214 7.16333 93.5994 7.476 93.898 7.868C94.1967 8.26 94.4114 8.71267 94.542 9.226C94.682 9.73 94.7194 10.2527 94.654 10.794H89.334Z" fill="#8E8888" fill-opacity="0.35"/>
<path d="M0.882 589.762H2.394V590.742H2.422C2.646 590.322 2.95867 590.023 3.36 589.846C3.76133 589.659 4.19533 589.566 4.662 589.566C5.23133 589.566 5.726 589.669 6.146 589.874C6.57533 590.07 6.93 590.345 7.21 590.7C7.49 591.045 7.7 591.451 7.84 591.918C7.98 592.385 8.05 592.884 8.05 593.416C8.05 593.901 7.98467 594.373 7.854 594.83C7.73267 595.287 7.54133 595.693 7.28 596.048C7.028 596.393 6.706 596.673 6.314 596.888C5.922 597.093 5.46 597.196 4.928 597.196C4.69467 597.196 4.46133 597.173 4.228 597.126C3.99467 597.089 3.77067 597.023 3.556 596.93C3.34133 596.837 3.14067 596.72 2.954 596.58C2.77667 596.431 2.62733 596.258 2.506 596.062H2.478V599.674H0.882V589.762ZM6.454 593.388C6.454 593.061 6.412 592.744 6.328 592.436C6.244 592.128 6.118 591.857 5.95 591.624C5.782 591.381 5.572 591.19 5.32 591.05C5.068 590.901 4.77867 590.826 4.452 590.826C3.78 590.826 3.27133 591.059 2.926 591.526C2.59 591.993 2.422 592.613 2.422 593.388C2.422 593.752 2.464 594.093 2.548 594.41C2.64133 594.718 2.77667 594.984 2.954 595.208C3.13133 595.432 3.34133 595.609 3.584 595.74C3.836 595.871 4.12533 595.936 4.452 595.936C4.816 595.936 5.124 595.861 5.376 595.712C5.628 595.563 5.83333 595.371 5.992 595.138C6.16 594.895 6.27667 594.625 6.342 594.326C6.41667 594.018 6.454 593.705 6.454 593.388ZM9.39859 589.762H10.8966V591.162H10.9246C10.9713 590.966 11.0599 590.775 11.1906 590.588C11.3306 590.401 11.4939 590.233 11.6806 590.084C11.8766 589.925 12.0913 589.799 12.3246 589.706C12.5579 589.613 12.7959 589.566 13.0386 589.566C13.2253 589.566 13.3513 589.571 13.4166 589.58C13.4913 589.589 13.5659 589.599 13.6406 589.608V591.148C13.5286 591.129 13.4119 591.115 13.2906 591.106C13.1786 591.087 13.0666 591.078 12.9546 591.078C12.6839 591.078 12.4273 591.134 12.1846 591.246C11.9513 591.349 11.7459 591.507 11.5686 591.722C11.3913 591.927 11.2513 592.184 11.1486 592.492C11.0459 592.8 10.9946 593.155 10.9946 593.556V597H9.39859V589.762ZM17.3924 597.196C16.8137 597.196 16.2957 597.103 15.8384 596.916C15.3904 596.72 15.0077 596.454 14.6904 596.118C14.3824 595.782 14.1444 595.381 13.9764 594.914C13.8177 594.447 13.7384 593.934 13.7384 593.374C13.7384 592.823 13.8177 592.315 13.9764 591.848C14.1444 591.381 14.3824 590.98 14.6904 590.644C15.0077 590.308 15.3904 590.047 15.8384 589.86C16.2957 589.664 16.8137 589.566 17.3924 589.566C17.971 589.566 18.4844 589.664 18.9324 589.86C19.3897 590.047 19.7724 590.308 20.0804 590.644C20.3977 590.98 20.6357 591.381 20.7944 591.848C20.9624 592.315 21.0464 592.823 21.0464 593.374C21.0464 593.934 20.9624 594.447 20.7944 594.914C20.6357 595.381 20.3977 595.782 20.0804 596.118C19.7724 596.454 19.3897 596.72 18.9324 596.916C18.4844 597.103 17.971 597.196 17.3924 597.196ZM17.3924 595.936C17.747 595.936 18.055 595.861 18.3164 595.712C18.5777 595.563 18.7924 595.367 18.9604 595.124C19.1284 594.881 19.2497 594.611 19.3244 594.312C19.4084 594.004 19.4504 593.691 19.4504 593.374C19.4504 593.066 19.4084 592.758 19.3244 592.45C19.2497 592.142 19.1284 591.871 18.9604 591.638C18.7924 591.395 18.5777 591.199 18.3164 591.05C18.055 590.901 17.747 590.826 17.3924 590.826C17.0377 590.826 16.7297 590.901 16.4684 591.05C16.207 591.199 15.9924 591.395 15.8244 591.638C15.6564 591.871 15.5304 592.142 15.4464 592.45C15.3717 592.758 15.3344 593.066 15.3344 593.374C15.3344 593.691 15.3717 594.004 15.4464 594.312C15.5304 594.611 15.6564 594.881 15.8244 595.124C15.9924 595.367 16.207 595.563 16.4684 595.712C16.7297 595.861 17.0377 595.936 17.3924 595.936ZM29.1912 597H27.6792V596.02H27.6512C27.4365 596.44 27.1239 596.743 26.7132 596.93C26.3025 597.107 25.8685 597.196 25.4112 597.196C24.8419 597.196 24.3425 597.098 23.9132 596.902C23.4932 596.697 23.1432 596.421 22.8632 596.076C22.5832 595.731 22.3732 595.325 22.2332 594.858C22.0932 594.382 22.0232 593.873 22.0232 593.332C22.0232 592.679 22.1119 592.114 22.2892 591.638C22.4665 591.162 22.6999 590.77 22.9892 590.462C23.2879 590.154 23.6239 589.93 23.9972 589.79C24.3799 589.641 24.7672 589.566 25.1592 589.566C25.3832 589.566 25.6119 589.589 25.8452 589.636C26.0785 589.673 26.3025 589.739 26.5172 589.832C26.7319 589.925 26.9279 590.047 27.1052 590.196C27.2919 590.336 27.4459 590.504 27.5672 590.7H27.5952V587.004H29.1912V597ZM23.6192 593.458C23.6192 593.766 23.6565 594.069 23.7312 594.368C23.8152 594.667 23.9365 594.933 24.0952 595.166C24.2632 595.399 24.4732 595.586 24.7252 595.726C24.9772 595.866 25.2759 595.936 25.6212 595.936C25.9759 595.936 26.2792 595.861 26.5312 595.712C26.7925 595.563 27.0025 595.367 27.1612 595.124C27.3292 594.881 27.4505 594.611 27.5252 594.312C27.6092 594.004 27.6512 593.691 27.6512 593.374C27.6512 592.571 27.4692 591.946 27.1052 591.498C26.7505 591.05 26.2652 590.826 25.6492 590.826C25.2759 590.826 24.9585 590.905 24.6972 591.064C24.4452 591.213 24.2352 591.414 24.0672 591.666C23.9085 591.909 23.7919 592.189 23.7172 592.506C23.6519 592.814 23.6192 593.131 23.6192 593.458ZM37.2878 597H35.7198V595.992H35.6918C35.4958 596.356 35.2018 596.65 34.8098 596.874C34.4271 597.089 34.0351 597.196 33.6338 597.196C32.6818 597.196 31.9911 596.963 31.5618 596.496C31.1418 596.02 30.9318 595.306 30.9318 594.354V589.762H32.5278V594.2C32.5278 594.835 32.6491 595.283 32.8918 595.544C33.1345 595.805 33.4751 595.936 33.9138 595.936C34.2498 595.936 34.5298 595.885 34.7538 595.782C34.9778 595.679 35.1598 595.544 35.2998 595.376C35.4398 595.199 35.5378 594.989 35.5938 594.746C35.6591 594.503 35.6918 594.242 35.6918 593.962V589.762H37.2878V597ZM43.8569 592.184C43.7915 591.736 43.6095 591.4 43.3109 591.176C43.0215 590.943 42.6529 590.826 42.2049 590.826C41.9995 590.826 41.7802 590.863 41.5469 590.938C41.3135 591.003 41.0989 591.134 40.9029 591.33C40.7069 591.517 40.5435 591.783 40.4129 592.128C40.2822 592.464 40.2169 592.907 40.2169 593.458C40.2169 593.757 40.2495 594.055 40.3149 594.354C40.3895 594.653 40.5015 594.919 40.6509 595.152C40.8095 595.385 41.0102 595.577 41.2529 595.726C41.4955 595.866 41.7895 595.936 42.1349 595.936C42.6015 595.936 42.9842 595.791 43.2829 595.502C43.5909 595.213 43.7822 594.807 43.8569 594.284H45.4529C45.3035 595.227 44.9442 595.95 44.3749 596.454C43.8149 596.949 43.0682 597.196 42.1349 597.196C41.5655 597.196 41.0615 597.103 40.6229 596.916C40.1935 596.72 39.8295 596.459 39.5309 596.132C39.2322 595.796 39.0035 595.399 38.8449 594.942C38.6955 594.485 38.6209 593.99 38.6209 593.458C38.6209 592.917 38.6955 592.408 38.8449 591.932C38.9942 591.456 39.2182 591.045 39.5169 590.7C39.8155 590.345 40.1842 590.07 40.6229 589.874C41.0709 589.669 41.5935 589.566 42.1909 589.566C42.6109 589.566 43.0075 589.622 43.3809 589.734C43.7635 589.837 44.0995 589.995 44.3889 590.21C44.6875 590.425 44.9302 590.695 45.1169 591.022C45.3035 591.349 45.4155 591.736 45.4529 592.184H43.8569ZM46.0222 589.762H47.2262V587.592H48.8222V589.762H50.2642V590.952H48.8222V594.816C48.8222 594.984 48.8268 595.129 48.8362 595.25C48.8548 595.371 48.8875 595.474 48.9342 595.558C48.9902 595.642 49.0695 595.707 49.1722 595.754C49.2748 595.791 49.4148 595.81 49.5922 595.81C49.7042 595.81 49.8162 595.81 49.9282 595.81C50.0402 595.801 50.1522 595.782 50.2642 595.754V596.986C50.0868 597.005 49.9142 597.023 49.7462 597.042C49.5782 597.061 49.4055 597.07 49.2282 597.07C48.8082 597.07 48.4675 597.033 48.2062 596.958C47.9542 596.874 47.7535 596.757 47.6042 596.608C47.4642 596.449 47.3662 596.253 47.3102 596.02C47.2635 595.787 47.2355 595.521 47.2262 595.222V590.952H46.0222V589.762ZM62.1268 597H60.6148V596.02H60.5868C60.3721 596.44 60.0594 596.743 59.6488 596.93C59.2381 597.107 58.8041 597.196 58.3468 597.196C57.7774 597.196 57.2781 597.098 56.8488 596.902C56.4288 596.697 56.0788 596.421 55.7988 596.076C55.5188 595.731 55.3088 595.325 55.1688 594.858C55.0288 594.382 54.9588 593.873 54.9588 593.332C54.9588 592.679 55.0474 592.114 55.2248 591.638C55.4021 591.162 55.6354 590.77 55.9248 590.462C56.2234 590.154 56.5594 589.93 56.9328 589.79C57.3154 589.641 57.7028 589.566 58.0948 589.566C58.3188 589.566 58.5474 589.589 58.7808 589.636C59.0141 589.673 59.2381 589.739 59.4528 589.832C59.6674 589.925 59.8634 590.047 60.0408 590.196C60.2274 590.336 60.3814 590.504 60.5028 590.7H60.5308V587.004H62.1268V597ZM56.5548 593.458C56.5548 593.766 56.5921 594.069 56.6668 594.368C56.7508 594.667 56.8721 594.933 57.0308 595.166C57.1988 595.399 57.4088 595.586 57.6608 595.726C57.9128 595.866 58.2114 595.936 58.5568 595.936C58.9114 595.936 59.2148 595.861 59.4668 595.712C59.7281 595.563 59.9381 595.367 60.0968 595.124C60.2648 594.881 60.3861 594.611 60.4608 594.312C60.5448 594.004 60.5868 593.691 60.5868 593.374C60.5868 592.571 60.4048 591.946 60.0408 591.498C59.6861 591.05 59.2008 590.826 58.5847 590.826C58.2114 590.826 57.8941 590.905 57.6328 591.064C57.3808 591.213 57.1708 591.414 57.0028 591.666C56.8441 591.909 56.7274 592.189 56.6528 592.506C56.5874 592.814 56.5548 593.131 56.5548 593.458ZM68.8373 592.744C68.8187 592.492 68.7627 592.249 68.6693 592.016C68.5853 591.783 68.464 591.582 68.3053 591.414C68.156 591.237 67.9693 591.097 67.7453 590.994C67.5307 590.882 67.288 590.826 67.0173 590.826C66.7373 590.826 66.4807 590.877 66.2473 590.98C66.0233 591.073 65.8273 591.209 65.6593 591.386C65.5007 591.554 65.37 591.755 65.2673 591.988C65.174 592.221 65.1227 592.473 65.1133 592.744H68.8373ZM65.1133 593.794C65.1133 594.074 65.1507 594.345 65.2253 594.606C65.3093 594.867 65.4307 595.096 65.5893 595.292C65.748 595.488 65.9487 595.647 66.1913 595.768C66.434 595.88 66.7233 595.936 67.0593 595.936C67.526 595.936 67.8993 595.838 68.1793 595.642C68.4687 595.437 68.6833 595.133 68.8233 594.732H70.3353C70.2513 595.124 70.1067 595.474 69.9013 595.782C69.696 596.09 69.4487 596.351 69.1593 596.566C68.87 596.771 68.5433 596.925 68.1793 597.028C67.8247 597.14 67.4513 597.196 67.0593 597.196C66.49 597.196 65.986 597.103 65.5473 596.916C65.1087 596.729 64.7353 596.468 64.4273 596.132C64.1287 595.796 63.9 595.395 63.7413 594.928C63.592 594.461 63.5173 593.948 63.5173 593.388C63.5173 592.875 63.5967 592.389 63.7553 591.932C63.9233 591.465 64.1567 591.059 64.4553 590.714C64.7633 590.359 65.132 590.079 65.5613 589.874C65.9907 589.669 66.476 589.566 67.0173 589.566C67.5867 589.566 68.0953 589.687 68.5433 589.93C69.0007 590.163 69.3787 590.476 69.6773 590.868C69.976 591.26 70.1907 591.713 70.3213 592.226C70.4613 592.73 70.4987 593.253 70.4333 593.794H65.1133ZM72.8506 594.676C72.8973 595.143 73.0746 595.469 73.3826 595.656C73.6906 595.843 74.0593 595.936 74.4886 595.936C74.638 595.936 74.806 595.927 74.9926 595.908C75.1886 595.88 75.3706 595.833 75.5386 595.768C75.7066 595.703 75.842 595.609 75.9446 595.488C76.0566 595.357 76.108 595.189 76.0986 594.984C76.0893 594.779 76.0146 594.611 75.8746 594.48C75.7346 594.349 75.5526 594.247 75.3286 594.172C75.114 594.088 74.8666 594.018 74.5866 593.962C74.3066 593.906 74.022 593.845 73.7326 593.78C73.434 593.715 73.1446 593.635 72.8646 593.542C72.594 593.449 72.3466 593.323 72.1226 593.164C71.908 593.005 71.7353 592.805 71.6046 592.562C71.474 592.31 71.4086 592.002 71.4086 591.638C71.4086 591.246 71.502 590.919 71.6886 590.658C71.8846 590.387 72.1273 590.173 72.4166 590.014C72.7153 589.846 73.042 589.729 73.3966 589.664C73.7606 589.599 74.106 589.566 74.4326 589.566C74.806 589.566 75.1606 589.608 75.4966 589.692C75.842 589.767 76.15 589.893 76.4206 590.07C76.7006 590.247 76.9293 590.481 77.1066 590.77C77.2933 591.05 77.41 591.391 77.4566 591.792H75.7906C75.716 591.409 75.5386 591.153 75.2586 591.022C74.988 590.891 74.6753 590.826 74.3206 590.826C74.2086 590.826 74.0733 590.835 73.9146 590.854C73.7653 590.873 73.6206 590.91 73.4806 590.966C73.35 591.013 73.238 591.087 73.1446 591.19C73.0513 591.283 73.0046 591.409 73.0046 591.568C73.0046 591.764 73.07 591.923 73.2006 592.044C73.3406 592.165 73.518 592.268 73.7326 592.352C73.9566 592.427 74.2086 592.492 74.4886 592.548C74.7686 592.604 75.058 592.665 75.3566 592.73C75.646 592.795 75.9306 592.875 76.2106 592.968C76.4906 593.061 76.738 593.187 76.9526 593.346C77.1766 593.505 77.354 593.705 77.4846 593.948C77.6246 594.191 77.6946 594.489 77.6946 594.844C77.6946 595.273 77.5966 595.637 77.4006 595.936C77.2046 596.235 76.948 596.477 76.6306 596.664C76.3226 596.851 75.9773 596.986 75.5946 597.07C75.212 597.154 74.834 597.196 74.4606 597.196C74.0033 597.196 73.5786 597.145 73.1866 597.042C72.804 596.939 72.468 596.785 72.1786 596.58C71.8986 596.365 71.6746 596.104 71.5066 595.796C71.348 595.479 71.264 595.105 71.2546 594.676H72.8506ZM78.9484 587.004H80.5444V588.516H78.9484V587.004ZM78.9484 589.762H80.5444V597H78.9484V589.762ZM88.9754 596.622C88.9754 597.714 88.6674 598.526 88.0514 599.058C87.4447 599.599 86.5674 599.87 85.4194 599.87C85.0554 599.87 84.6867 599.833 84.3134 599.758C83.9494 599.683 83.6134 599.557 83.3054 599.38C83.0067 599.203 82.7547 598.969 82.5494 598.68C82.344 598.391 82.2227 598.036 82.1854 597.616H83.7814C83.828 597.84 83.9074 598.022 84.0194 598.162C84.1314 598.302 84.262 598.409 84.4114 598.484C84.57 598.568 84.7427 598.619 84.9294 598.638C85.116 598.666 85.312 598.68 85.5174 598.68C86.1614 598.68 86.6327 598.521 86.9314 598.204C87.23 597.887 87.3794 597.429 87.3794 596.832V595.726H87.3514C87.1274 596.127 86.8194 596.44 86.4274 596.664C86.0447 596.888 85.6294 597 85.1814 597C84.6027 597 84.108 596.902 83.6974 596.706C83.296 596.501 82.96 596.225 82.6894 595.88C82.428 595.525 82.2367 595.119 82.1154 594.662C81.994 594.205 81.9334 593.715 81.9334 593.192C81.9334 592.707 82.008 592.245 82.1574 591.806C82.3067 591.367 82.5214 590.985 82.8014 590.658C83.0814 590.322 83.422 590.056 83.8234 589.86C84.234 589.664 84.696 589.566 85.2094 589.566C85.6667 589.566 86.0867 589.664 86.4694 589.86C86.852 590.047 87.146 590.345 87.3514 590.756H87.3794V589.762H88.9754V596.622ZM85.4334 595.74C85.788 595.74 86.0867 595.67 86.3294 595.53C86.5814 595.381 86.782 595.189 86.9314 594.956C87.09 594.713 87.202 594.443 87.2674 594.144C87.342 593.836 87.3794 593.528 87.3794 593.22C87.3794 592.912 87.342 592.613 87.2674 592.324C87.1927 592.035 87.076 591.778 86.9174 591.554C86.768 591.33 86.5674 591.153 86.3154 591.022C86.0727 590.891 85.7787 590.826 85.4334 590.826C85.0787 590.826 84.78 590.901 84.5374 591.05C84.2947 591.199 84.0987 591.395 83.9494 591.638C83.8 591.871 83.6927 592.142 83.6274 592.45C83.562 592.749 83.5294 593.047 83.5294 593.346C83.5294 593.645 83.5667 593.939 83.6414 594.228C83.716 594.508 83.828 594.76 83.9774 594.984C84.136 595.208 84.332 595.39 84.5654 595.53C84.808 595.67 85.0974 595.74 85.4334 595.74ZM90.5822 589.762H92.0942V590.826L92.1222 590.854C92.3649 590.453 92.6822 590.14 93.0742 589.916C93.4662 589.683 93.9002 589.566 94.3762 589.566C95.1695 589.566 95.7949 589.771 96.2522 590.182C96.7095 590.593 96.9382 591.209 96.9382 592.03V597H95.3422V592.45C95.3235 591.881 95.2022 591.47 94.9782 591.218C94.7542 590.957 94.4042 590.826 93.9282 590.826C93.6575 590.826 93.4149 590.877 93.2002 590.98C92.9855 591.073 92.8035 591.209 92.6542 591.386C92.5049 591.554 92.3882 591.755 92.3042 591.988C92.2202 592.221 92.1782 592.469 92.1782 592.73V597H90.5822V589.762ZM103.591 592.744C103.573 592.492 103.517 592.249 103.423 592.016C103.339 591.783 103.218 591.582 103.059 591.414C102.91 591.237 102.723 591.097 102.499 590.994C102.285 590.882 102.042 590.826 101.771 590.826C101.491 590.826 101.235 590.877 101.001 590.98C100.777 591.073 100.581 591.209 100.413 591.386C100.255 591.554 100.124 591.755 100.021 591.988C99.9279 592.221 99.8766 592.473 99.8673 592.744H103.591ZM99.8673 593.794C99.8673 594.074 99.9046 594.345 99.9793 594.606C100.063 594.867 100.185 595.096 100.343 595.292C100.502 595.488 100.703 595.647 100.945 595.768C101.188 595.88 101.477 595.936 101.813 595.936C102.28 595.936 102.653 595.838 102.933 595.642C103.223 595.437 103.437 595.133 103.577 594.732H105.089C105.005 595.124 104.861 595.474 104.655 595.782C104.45 596.09 104.203 596.351 103.913 596.566C103.624 596.771 103.297 596.925 102.933 597.028C102.579 597.14 102.205 597.196 101.813 597.196C101.244 597.196 100.74 597.103 100.301 596.916C99.8626 596.729 99.4893 596.468 99.1813 596.132C98.8826 595.796 98.6539 595.395 98.4953 594.928C98.3459 594.461 98.2713 593.948 98.2713 593.388C98.2713 592.875 98.3506 592.389 98.5093 591.932C98.6773 591.465 98.9106 591.059 99.2093 590.714C99.5173 590.359 99.8859 590.079 100.315 589.874C100.745 589.669 101.23 589.566 101.771 589.566C102.341 589.566 102.849 589.687 103.297 589.93C103.755 590.163 104.133 590.476 104.431 590.868C104.73 591.26 104.945 591.713 105.075 592.226C105.215 592.73 105.253 593.253 105.187 593.794H99.8673ZM106.401 589.762H107.899V591.162H107.927C107.973 590.966 108.062 590.775 108.193 590.588C108.333 590.401 108.496 590.233 108.683 590.084C108.879 589.925 109.093 589.799 109.327 589.706C109.56 589.613 109.798 589.566 110.041 589.566C110.227 589.566 110.353 589.571 110.419 589.58C110.493 589.589 110.568 589.599 110.643 589.608V591.148C110.531 591.129 110.414 591.115 110.293 591.106C110.181 591.087 110.069 591.078 109.957 591.078C109.686 591.078 109.429 591.134 109.187 591.246C108.953 591.349 108.748 591.507 108.571 591.722C108.393 591.927 108.253 592.184 108.151 592.492C108.048 592.8 107.997 593.155 107.997 593.556V597H106.401V589.762Z" fill="#8E8888" fill-opacity="0.35"/>
<path d="M51.5 577L45.8708 567.25L57.1292 567.25L51.5 577Z" fill="#D7D0D0"/>
</svg>
