<svg width="65" height="49" viewBox="0 0 65 49" fill="none" xmlns="http://www.w3.org/2000/svg">
<path d="M31.688 19.318C31.688 20.9953 31.3593 22.7293 30.702 24.52C30.0673 26.3107 29.1947 27.8973 28.084 29.28C26.384 31.388 24.6387 32.442 22.848 32.442C21.8733 32.442 21.0687 32.1813 20.434 31.66C19.7993 31.116 19.482 30.4247 19.482 29.586C19.482 28.5433 19.924 26.9793 20.808 24.894L22.78 20.236C23.052 19.6013 23.188 19.182 23.188 18.978C23.188 18.502 22.916 18.264 22.372 18.264C21.9187 18.264 21.3067 18.604 20.536 19.284C19.788 19.9413 19.244 20.61 18.904 21.29C18.7453 21.63 18.5753 21.8 18.394 21.8C18.19 21.8 18.088 21.7207 18.088 21.562C18.088 21.0633 18.7113 20.2247 19.958 19.046C21.1367 17.9353 22.2927 17.38 23.426 17.38C24.1287 17.38 24.6953 17.5613 25.126 17.924C25.5567 18.2867 25.772 18.7627 25.772 19.352C25.772 19.9867 25.5567 20.8027 25.126 21.8L23.222 26.22C22.5873 27.6933 22.27 28.94 22.27 29.96C22.27 31.1387 22.7573 31.728 23.732 31.728C25.16 31.728 26.7127 30.4247 28.39 27.818C30.09 25.2113 30.94 22.786 30.94 20.542C30.94 19.794 30.7813 19.42 30.464 19.42C30.4413 19.42 30.328 19.454 30.124 19.522C29.9427 19.5673 29.784 19.59 29.648 19.59C29.036 19.59 28.73 19.3067 28.73 18.74C28.73 18.3773 28.866 18.0713 29.138 17.822C29.4327 17.55 29.7727 17.414 30.158 17.414C31.178 17.414 31.688 18.0487 31.688 19.318ZM45.6118 18.944C45.6118 19.3973 45.4645 19.794 45.1698 20.134C44.8751 20.4513 44.5351 20.61 44.1498 20.61C43.7871 20.61 43.6058 20.4853 43.6058 20.236C43.6058 20.236 43.6285 20.1227 43.6738 19.896C43.7191 19.76 43.7418 19.6353 43.7418 19.522C43.7418 18.978 43.4698 18.706 42.9258 18.706C42.2685 18.706 41.3505 19.3407 40.1718 20.61C38.9931 21.8793 37.8825 23.6587 36.8398 25.948L34.3918 31.32C34.1651 31.8413 33.9725 32.102 33.8138 32.102C33.3605 32.034 33.0091 32 32.7598 32C32.3745 32 32.0685 32.0227 31.8418 32.068H31.6378C31.4338 32.068 31.3318 32.0227 31.3318 31.932C31.3318 31.9093 31.3658 31.864 31.4338 31.796L31.6038 31.456L37.3498 18.4C37.3498 18.2187 37.2025 18.128 36.9078 18.128C36.9305 18.128 36.8851 18.128 36.7718 18.128C36.6811 18.1507 36.5338 18.162 36.3298 18.162H35.9898C35.6498 18.162 35.4798 18.0827 35.4798 17.924C35.4798 17.788 36.0691 17.6973 37.2478 17.652C38.4265 17.6067 39.2198 17.5047 39.6278 17.346C39.8091 17.3007 39.9111 17.278 39.9338 17.278C40.0698 17.278 40.1378 17.346 40.1378 17.482C40.1378 17.5953 39.9905 18.0147 39.6958 18.74L38.4378 21.8C40.5231 18.8987 42.3591 17.448 43.9458 17.448C45.0565 17.448 45.6118 17.9467 45.6118 18.944ZM59.0049 21.664C59.0049 24.2027 57.8149 26.6393 55.4349 28.974C53.0775 31.286 50.6069 32.442 48.0229 32.442C46.8215 32.442 45.8015 32.1247 44.9629 31.49C44.1469 30.8327 43.7389 30.0507 43.7389 29.144C43.7389 28.6227 44.0789 27.58 44.7589 26.016L51.9329 9.628C52.0009 9.37867 52.0915 9.17467 52.2049 9.016C52.3182 8.83467 52.3749 8.73267 52.3749 8.71C52.3749 8.46067 51.7515 8.35867 50.5049 8.404C50.3235 8.404 50.2329 8.336 50.2329 8.2C50.2329 8.04133 50.5162 7.962 51.0829 7.962C52.9642 7.962 54.0182 7.95067 54.2449 7.928L54.9589 7.86H55.1969C55.3782 7.86 55.4689 7.928 55.4689 8.064C55.4689 8.132 55.4349 8.22267 55.3669 8.336C55.1402 8.676 54.9022 9.152 54.6529 9.764L51.4229 17.686C51.1962 18.23 50.8902 18.8647 50.5049 19.59C50.6409 19.454 50.7542 19.352 50.8449 19.284L51.7289 18.468C52.5449 17.72 53.5875 17.346 54.8569 17.346C56.0582 17.346 57.0442 17.754 57.8149 18.57C58.6082 19.386 59.0049 20.4173 59.0049 21.664ZM56.2509 20.304C56.2509 18.74 55.6615 17.958 54.4829 17.958C52.2162 17.958 50.1535 20.2133 48.2949 24.724L47.4789 26.696C46.6855 28.6227 46.2889 29.9147 46.2889 30.572C46.2889 31.4787 46.8895 31.932 48.0909 31.932C50.3122 31.932 52.3182 30.2207 54.1089 26.798C55.5369 24.078 56.2509 21.9133 56.2509 20.304Z" fill="#373737"/>
<line x1="1.5" y1="2" x2="1.5" y2="49" stroke="#CAE234" stroke-width="3"/>
</svg>
